<svg xmlns="http://www.w3.org/2000/svg" version="1.1" xmlns:xlink="http://www.w3.org/1999/xlink" xmlns:svgjs="http://svgjs.dev/svgjs" width="1440" height="560" preserveAspectRatio="none" viewBox="0 0 1440 560"><g mask="url(&quot;#SvgjsMask1170&quot;)" fill="none"><rect width="1440" height="560" x="0" y="0" fill="url(&quot;#SvgjsLinearGradient1171&quot;)"></rect><circle r="5.29" cx="392.57" cy="547.29" filter="url(#SvgjsFilter1172)" fill="rgba(255, 255, 255, 0.58)"></circle><circle r="6.915" cx="881.3449999999999" cy="79.465" filter="url(#SvgjsFilter1172)" fill="rgba(255, 255, 255, 0.58)"></circle><circle r="7.915" cx="772.175" cy="418.375" filter="url(#SvgjsFilter1172)" fill="rgba(255, 255, 255, 0.58)"></circle><circle r="5.44" cx="530.1600000000001" cy="126.89999999999999" filter="url(#SvgjsFilter1172)" fill="rgba(255, 255, 255, 0.58)"></circle><circle r="6.04" cx="112.65" cy="353.5" filter="url(#SvgjsFilter1172)" fill="rgba(255, 255, 255, 0.58)"></circle><circle r="6.195" cx="690.8950000000001" cy="67.065" filter="url(#SvgjsFilter1172)" fill="rgba(255, 255, 255, 0.58)"></circle><circle r="7.445" cx="1382.885" cy="122.155" filter="url(#SvgjsFilter1172)" fill="rgba(255, 255, 255, 0.58)"></circle><circle r="5.75" cx="1201.15" cy="113.35" filter="url(#SvgjsFilter1172)" fill="rgba(255, 255, 255, 0.58)"></circle><circle r="5.04" cx="791.31" cy="221.64" filter="url(#SvgjsFilter1172)" fill="rgba(255, 255, 255, 0.58)"></circle><circle r="6.7" cx="1196.42" cy="300.93" filter="url(#SvgjsFilter1172)" fill="rgba(255, 255, 255, 0.58)"></circle><circle r="5.095" cx="1006.455" cy="334.235" filter="url(#SvgjsFilter1172)" fill="rgba(255, 255, 255, 0.58)"></circle><circle r="8.4" cx="186.95000000000002" cy="69.94" filter="url(#SvgjsFilter1172)" fill="rgba(255, 255, 255, 0.58)"></circle><circle r="8.99" cx="296.16" cy="410.26" filter="url(#SvgjsFilter1172)" fill="rgba(255, 255, 255, 0.58)"></circle><circle r="5.22" cx="775.13" cy="261.5" filter="url(#SvgjsFilter1172)" fill="rgba(255, 255, 255, 0.58)"></circle><circle r="7.81" cx="645.0999999999999" cy="556.42" filter="url(#SvgjsFilter1172)" fill="rgba(255, 255, 255, 0.58)"></circle><circle r="5.125" cx="343.455" cy="535.015" filter="url(#SvgjsFilter1172)" fill="rgba(255, 255, 255, 0.58)"></circle><circle r="6.26" cx="755.34" cy="351" filter="url(#SvgjsFilter1172)" fill="rgba(255, 255, 255, 0.58)"></circle><circle r="6.6" cx="374.75" cy="420.1" filter="url(#SvgjsFilter1172)" fill="rgba(255, 255, 255, 0.58)"></circle><circle r="7.64" cx="1244.0300000000002" cy="248.67999999999998" filter="url(#SvgjsFilter1172)" fill="rgba(255, 255, 255, 0.58)"></circle><circle r="9.135" cx="1435.015" cy="474.365" filter="url(#SvgjsFilter1172)" fill="rgba(255, 255, 255, 0.58)"></circle><path d="M763.8 411.4L748.2 398.7 760.6 393.4C762 393 762.9 391.2 762.5 389.2 761.5 387.7 759.7 386.8 758.3 387.3L741.8 393.9 727.4 382.1 761 368.9C763.1 367.9 764 366.1 762.9 364.7 762.5 362.7 760.7 361.8 758.6 362.8L721.6 377.4 708.2 367 713.9 328.4 727.6 322.7 760.6 349.5C761.2 349.5 761.9 349.6 762.5 349.7 763.1 349.8 764.5 349.4 765.2 348.8 766.7 347.1 766.4 345.1 764.6 344.2L734.5 319.8 751.6 313.2 767.4 325.2C767.3 325.9 767.9 325.9 768.5 326 769.8 326.2 771.2 325.8 772 324.6 772.8 323.4 772.4 321.4 771.4 320L758.5 310.3 779.8 301.8C781.2 301.4 782.1 299.6 781.7 297.6 780.7 296.1 778.8 295.2 777.5 295.7L757.6 303.7 759.5 290.4C759.8 288.5 758.1 287 756.8 286.8 754.9 286.5 752.8 287.5 752.5 289.4L750 306.5 732.9 313.1 738.1 277.6C738.4 275.7 737.3 274.3 735.4 274 733.5 273.7 732 274.8 731.7 276.7L726 316 711.5 322.2 680.8 297.7 682.9 283.2 720.7 268C722.7 267.6 723.7 265.2 722.6 263.7 722.3 261.7 720.4 261.4 718.4 261.8L684.1 275.6 686.7 257.2 703.9 250.6C705.2 250.2 706.2 247.7 705.8 246.4S702.9 244 700.9 244.4L687.8 249.6 691.1 227.4C691.4 225.5 689.6 224 687.7 223.7 686.5 223.5 684.4 224.5 684.1 226.4L680.9 248.6 669.2 239.8C668.1 238.9 666.2 238.7 664.6 240.4 663.8 241.6 664.1 244.2 665.2 245L679.8 256.2 677.1 274.5 648.1 251.6C646.3 250.6 644.4 250.4 642.8 252.1 642 253.3 642.3 255.9 643.5 256.7L676 282.1 673.9 296.7 637.4 311.4 625.3 301.3 631.1 262C631.3 260.1 630.2 258.6 628.3 258.4 626.4 258.1 624.4 259.1 624.1 261L618.9 296.4 604.4 285.3 606.9 268.2C607.1 266.3 606.1 264.8 604.2 264.5 602.3 264.3 600.8 265.3 600.5 267.2L598.6 280.5 581.8 267.1C580.6 266.3 578 266.5 577.2 267.7 576.3 269.5 576 271.4 577.8 272.3L595.1 286.5 580.7 292.2C579.3 293.3 578.4 295.1 578.8 296.4 579.3 297.8 580.4 298.6 581.7 298.8 581.7 298.8 582.3 298.9 583.1 298.3L601.6 291.3 616.1 302.5 580.3 317.3C578.3 317.7 577.4 319.5 578.4 321.6 578.9 322.3 579.5 323 580.7 323.2 581.4 323.3 582 323.4 582.6 323.5L621.9 307.2 633.4 316.7 627.8 355.3 612 361.4 580.7 336.8C579 335.2 577 335.6 576.1 337.4 574.6 338.5 575 340.5 576.7 342L605.1 364.3 587.9 371.5 574 360.4C572.8 359.6 570.8 359.9 569.4 361 568.5 362.8 568.2 364.7 570 365.6L580.4 374.3 561.8 381.9C559.8 382.3 559.6 384.2 559.9 386.1 560.4 386.9 561.6 387.7 562.9 387.9 562.9 387.9 563.5 388 564.2 388.1L584.1 380 581.8 395.8C581.6 397.1 582.6 399.2 584.5 399.4 586.4 399.7 587.9 398 588.1 396.7L591 377.1 608.2 369.9 602.6 408.5C602.3 410.4 604 412 605.9 412.3S609.3 411.5 609.5 409.6L615.7 367.1 630.1 361.5 660.8 386 658.4 402.5 620 417.6C618.6 418.6 617.6 420.4 618 422.4 618.5 423.2 619.7 424 621 424.2 621.6 424.3 622.2 424.3 623 423.8L657.3 410.1 654.6 428.4 637.4 435.6C636.1 436.1 635.1 437.9 635.5 439.9 636.6 441.3 638.4 442.2 639.8 441.8L653.5 436 650.6 456.3C650.4 457.6 652 459.7 653.3 459.9 655.2 460.2 657.4 458.6 657.5 457.3L660.5 437 671.4 446.4C672.1 446.5 672.7 446.6 673.3 446.7 674.6 446.9 675.9 446.4 676.7 445.9 677.6 444.1 677.2 442.1 676.1 440.6L661.6 429.4 664.3 411.1 693.3 434.1C695 435.6 697 435.3 697.8 434.1 699.3 432.4 699 430.4 697.9 428.9L665.4 403.5 667.8 387 704.2 372.3 716.4 381.8 710.2 424.2C709.9 426.1 711 427.6 712.9 427.9 714.8 428.2 716.3 427.1 716.6 425.2L722.2 386.5 736.6 398.3 733.8 418C733.6 419.2 735.2 421.4 737.1 421.7 739 422 740.6 420.3 740.7 419L743 403.2 759.8 416.6C760.5 416.7 760.5 416.7 761.1 416.8 762.4 417 763.7 416.5 764.5 416 765.4 414.2 765 412.2 763.8 411.4ZM668.9 379.4L664.8 380.8 661.9 378.4 637 358.6 634.1 356.2 634.7 352.4 639.2 321.4 639.8 317.6 643.2 316.2 672.7 304.3 676.2 302.9 679.7 305.3 704 325 707.5 327.5 707 331.3 702.4 362.3 701.9 366.1 697.8 367.5 668.9 379.4Z" fill="rgba(255, 255, 255, 0.58)"></path><path d="M375.2 582.2L362.7 532.7 372.6 516.9 376.7 533.6C376.7 535.5 378.6 536.2 380.5 536.2 381.8 535.6 383.1 533.7 382.5 532.4L377.2 509.3 386.5 493.5 395.1 509.6 388.3 532.5C388.3 532.5 388.3 533.2 388.3 533.2 388.3 534.5 389.5 535.8 390.8 536.4 392.7 536.5 394 535.8 394.7 533.9L399.5 517.4 408.1 533.6 394.4 582.6C394.4 582.6 393.7 583.2 393.7 583.2 393.7 584.5 395 585.8 396.2 586.5 398.1 587.1 400.1 585.9 400.1 584L412.4 541.3 423.6 560.7 418.1 579.8C418.1 579.8 418.1 579.8 418.1 580.5 418.1 581.8 418.7 583.1 420 583.7 421.9 583.8 423.8 583.1 424.5 581.2L427.9 568.5 436 582.7C436.6 584.7 438.5 584.7 439.8 584.1 441.7 583.5 442.4 581.6 441.2 579.6L433.7 565.4 445.8 569.5C447.8 569.5 449.7 568.9 449.7 567 450.4 565.1 449.8 563.8 447.9 563.1L428.8 557.6 418.3 538.2 461.6 550.6C462.8 551.3 464.8 550 465.4 548.1 465.5 546.8 464.9 544.9 463 544.2L413.9 530.5 405.3 514.3 421.8 519.1C423.7 519.8 425 518.5 425.7 516.6 426.4 515.3 425.1 513.4 423.9 512.7L401 506.5 391.7 490.4 410.2 490.7 426.5 507.7C427.8 509 429.7 509 431 507.8 432.3 507.1 432.4 504.6 431.1 503.3L419.2 490.9 437.7 491.2 472.9 528.4C474.1 529.7 476 529.7 477.3 528.5 478.7 527.2 478.7 525.3 477.4 524L446.7 491.4 468.4 491.8 482.3 506.2C483.5 507.5 485.4 507.5 486.7 506.3 488 505 488.1 503.1 486.8 501.8L478 492 494 492.3C496 492.4 497.3 491.1 497.3 489.2 497.3 487.3 496.1 486 494.2 485.9L478.2 485.6 487.3 476.8C488.6 475.6 488.6 473.7 487.4 472.3S484.2 471 482.9 472.3L469.2 485.4 446.8 485 478.8 454.3C480.1 453 480.1 451.1 478.9 449.8 477.6 448.5 475.7 448.4 474.4 449.7L437.9 484.8 419.3 484.5 431.7 472.6C433 471.3 433 469.4 431.8 468.1 430.5 466.8 428.6 466.7 427.3 468L410.3 484.3 392.4 484 401.7 468.8 424.8 462.8C426.1 462.2 427.4 460.3 426.8 459 426.2 457.1 425 456.4 423 456.4L406.3 460.6 415.6 445.4 465.1 432.9C467 432.3 467.7 431 467.7 429.1 467.1 427.2 465.2 426.5 463.9 426.5L420.2 437.1 432.1 418.2 450.8 413.4C452.7 413.4 453.3 411.5 453.4 409.6 452.8 408.3 450.9 407 448.9 407.6L436.7 410.6 444.7 396.6C446 395.4 445.4 393.4 443.5 392.1 442.2 391.5 440.3 392.1 439.6 393.3L431 407.3 428.1 394.4C427.5 392.5 425.6 391.8 424.3 392.4 422.3 392.4 421.7 393.6 421.7 394.9 421.6 395.6 421.6 395.6 421.6 396.2L426.4 414.8 414.5 433.8 403.8 390.7C403.9 388.8 401.9 388.1 400 388.1 398.7 388.7 398.1 390 398 391.3 398 391.9 398 391.9 398 391.9L409.9 442.1 400.6 457.2 396.5 440.5C395.9 438.6 394.6 437.9 392.7 437.9 391.4 438.5 390.1 439.8 390 441 390 441.7 390 441.7 390 442.3L396 465.5 386.7 480.7 378.1 465.1 384.3 442.2C384.9 440.3 383.7 438.4 382.4 437.7 380.5 437.7 378.6 438.3 378.5 440.2L373.7 456.7 364.4 441.2 378.8 391.5C379.5 390.3 378.3 388.3 377 387.7 375.1 387.6 373.1 388.2 372.5 390.1L360.1 432.8 349.6 413.4 355.1 394.9C355.8 393 354.5 391.1 352.6 391 351.3 390.4 349.4 391 348.7 392.9L345.3 405.6 337.2 391.4C336.6 390.1 334.7 389.4 332.8 390 332.1 390.6 331.5 391.9 331.4 393.2 331.4 393.2 331.4 393.8 331.4 394.5L339.5 408.7 326.7 405.3C325.5 404.6 323.5 405.8 322.8 407.1 322.8 407.7 322.8 407.7 322.8 407.7 322.8 409.7 324.1 411 325.3 411L343.8 416.5 354.9 435.9 311.7 423.5C309.7 423.5 308.4 424.1 307.8 426 307.8 426 307.7 426.7 307.7 426.7 307.7 427.9 308.3 429.2 310.2 429.9L359.3 444.3 367.9 459.8 351.4 455C349.5 455 347.5 455.6 347.5 457.5 346.8 457.5 346.8 458.1 346.8 458.1 346.8 459.4 348.1 460.7 349.3 461.4L372.3 467.6 380.9 483.7 363 483.4 346.7 466.4C345.4 465.1 342.9 465.1 341.6 466.3 340.9 467.6 340.9 469.5 341.5 470.8L354 483.2 335.5 482.9 300.3 446.4C299.1 445 297.2 445 295.9 446.3 294.5 447.5 294.5 449.4 295.8 450.7L326.5 482.7 304.1 482.3 290.9 468.6C289.7 467.3 287.8 467.2 286.5 468.5S285.1 471.7 286.4 473L295.2 482.1 279.2 481.8C277.2 481.8 275.9 483 275.9 484.9 275.9 486.9 277.1 488.2 279 488.2L295 488.5 285.9 497.9C285.2 498.6 284.6 499.2 284.6 499.8 284.6 500.5 285.2 501.8 285.8 502.4 287.1 503.7 289 503.7 290.3 502.5L304 488.7 326.4 489.1 294.4 520.5C293.8 521.1 293.1 521.7 293.1 522.4 293.1 523 293.7 524.3 294.3 525 295.6 526.3 297.5 526.3 298.8 525.1L335.4 489.3 353.9 489.6 340.9 501.5C340.2 502.2 340.2 503.4 340.2 504.1 340.2 504.7 340.2 505.4 340.8 506 342 507.3 344.6 507.4 345.3 506.1L362.9 489.8 380.8 490.1 371.5 506 348.4 511.3C347.1 511.9 345.8 513.2 345.8 514.4 345.7 515.1 345.7 515.1 346.4 515.1 346.3 517 348.2 518.3 350.2 517.7L366.9 513.6 357.6 529.4 307.5 541.2C306.2 541.8 305.5 543.1 305.5 544.4 305.5 545 305.5 545 305.5 545 306.1 547 307.3 548.3 309.3 547.7L353 537 341.1 556 322.5 560.7C320.5 561.3 319.9 562.6 319.8 563.9 319.8 563.9 319.8 564.5 319.8 564.5 320.4 566.4 322.3 567.1 323.6 567.1L336.5 563.5 327.9 577.5C327.9 578.1 327.9 578.7 327.9 579.4 327.8 580 328.5 581.3 329.1 582 331 582.6 332.9 582.7 333.6 580.8L342.2 566.9 345.1 579.7C345.7 581.7 347.6 582.3 348.9 582.4 350.9 581.7 351.5 579.8 351.6 577.9L346.8 559.3 358.1 540.3 368.8 583.4C369.4 585.3 371.3 586.6 372.5 586 374.5 585.4 375.8 584.1 375.2 582.2Z" fill="rgba(255, 255, 255, 0.58)"></path><path d="M935.8 473.5L932 499.7 926.3 504.2 911.3 497.8 910.2 490.5 926.7 469.6C926.8 469.3 926.8 469.3 926.9 469 927.2 468.4 927.1 467.7 926.4 467.1 925.5 466.7 924.8 466.7 924.1 467.5L909.8 485.8 908.4 474.4 914.6 466.2C914.6 466.2 914.7 465.9 914.7 465.9 914.9 465.4 914.9 464.6 914.1 464 913.7 463.4 912.5 463.6 911.9 464.4L907.6 469.5 906.7 461.1C906.6 460.4 905.8 459.8 904.8 459.7S903.3 460.8 903.3 461.8L904.3 469.9 899.1 465.9C898.3 465.3 897.2 465.5 896.5 466.2 896.3 466.8 896.2 467.8 896.9 468.5L905.1 474.7 906.4 486.4 888.1 472.1C887.4 471.4 886.2 471.6 885.7 472.1 885.3 473 885.2 474 886 474.6L907 490.8 907.9 498.5 895.1 508.1 888.1 505.1 877.9 480.6C877.6 479.8 876.7 479.4 875.9 479.7S874.6 481 875 481.8L883.9 503.3 873 498.7 869.3 489.5C869 488.6 868.1 488.3 866.9 488.5S865.7 489.7 866.1 490.5L868.9 497 861 493.6C860.1 493.2 859.1 493.8 858.7 494.7 858.4 495.6 858.7 496.5 859.6 496.8L867.5 500.2 861.3 502.7C860.1 503 859.7 503.8 860.4 504.8 860.7 505.6 861.6 506 862.4 505.7L871.7 501.9 882.6 506.6 860.9 515.1C860.1 515.4 859.6 516.6 859.9 517.5S861.1 518.7 862 518.3L886.7 508.3 893.8 511.3 895.7 527.4 889.6 531.8 863.4 528C862.4 527.9 861.8 528.7 861.4 529.6 861.3 530.6 862.1 531.2 862.9 531.6L885.9 534.7 876.8 541.6 866.6 540.1C865.6 540 865 540.8 864.6 541.7 864.6 542.4 865.3 543.4 866.3 543.4L872.8 544.5 866.1 549.6C865.6 550.1 865.5 551.1 865.8 551.9 866.6 552.6 867.6 552.7 868.1 552.2L874.8 547.1 874 554C874 554.7 874.7 555.7 875.4 555.6 876.3 556 876.8 555.5 877.2 554.6 877.2 554.6 877.3 554.4 877.3 554.4L878.8 544.2 888 537.3 884.8 560.3C884.8 561.3 885.1 562.2 886.1 562.3 887.1 562.3 887.7 561.9 887.9 561.3 888 561 888 561 888 561L891.7 534.4 897.7 530 912.7 536.3 913.5 543.6 897.2 564.9C896.6 565.3 896.9 566.4 897.3 567 898.1 567.7 899.2 567.4 899.9 566.7L914.2 548.4 915.6 559.8 909.4 567.9C908.8 568.7 908.7 569.7 909.6 570.1 910.3 570.8 911.4 570.5 912 570.1L916.1 564.5 917 572.9C917.4 573.7 918.1 574.4 919.2 574.5 919.6 574.3 920.1 573.9 920.4 573.3 920.5 573 920.5 573 920.3 572.6L919.4 564.2 924.9 568.3C925.7 568.9 926.5 568.6 927.1 568.1 927.2 567.8 927.2 567.8 927.3 567.5 927.6 566.9 927.5 566.2 927.1 565.7L918.9 559.5 917.5 548.1 935.7 562.4C936.6 562.8 937.6 562.9 938 562 938.4 561.8 938.4 561.8 938.6 561.5 938.8 560.9 938.5 560.1 938 559.5L916.7 543.2 916 536 928.8 526.1 935.6 529 945.7 553.7C946 554.6 947.2 555.1 948 554.7S949.4 553.2 949 552.4L940 530.9 950.7 535.4 954.7 544.7C955 545.5 955.9 545.9 956.8 545.6 957.6 545.2 958 544.4 957.6 543.5L955.1 537.2 963 540.6C963.6 540.8 964.8 540.6 965.1 539.7 965.5 538.9 965 537.6 964.4 537.3L956.4 534 962.7 531.4C963.2 531.3 963.6 531.1 963.7 530.8 964 530.2 963.8 529.8 963.6 529.4 963.3 528.5 962.4 528.2 961.5 528.5L952 532.1 941.4 527.6 963.1 519.1C963.5 518.9 963.6 518.6 963.9 518 964 517.7 964.1 517.4 964 517 963.6 516.2 962.5 515.7 961.6 516L937 525.8 930.2 522.9 928.2 507.1 934.1 502.3 960.6 506.2C961.3 506.1 962.1 505.8 962.4 505.2 962.5 504.9 962.5 504.9 962.2 504.8 962.6 503.9 961.9 502.9 960.9 502.9L937.9 499.7 947.2 492.6 957.4 494.1C958.1 494 958.6 493.6 958.9 493 958.9 493 959 492.7 959 492.7 959.4 491.8 958.7 490.8 957.7 490.7L950.8 489.9 957.5 484.7C957.9 484.6 958 484.3 958.1 484 958.4 483.4 958.4 482.7 958.1 482.5 957.4 481.6 956.4 481.5 955.6 481.8L948.9 487 949.9 480.5C950 479.5 949.3 478.5 948.3 478.4 947.6 478.5 946.7 479.1 946.7 479.8L945.2 490 936 496.9 939.1 473.9C939.2 472.8 938.5 472.2 937.6 471.8 936.9 471.8 935.9 472.5 935.8 473.5ZM911.7 501.8L923.2 506.7 924.9 507.4 925.2 509.3 926.7 521.4 926.8 523.5 925.3 524.6 915.6 532 914.1 533.1 912.3 532.3 900.8 527.5 899.1 526.7 898.8 524.9 897.3 512.8 897.1 510.9 898.7 509.5 908.4 502.2 909.9 501.1 911.7 501.8Z" fill="rgba(255, 255, 255, 0.58)"></path><path d="M230.1 212.7L244 190.3 251.1 188.4 262.3 200.2 260.3 207.4 236.9 219.9C236.7 220.2 236.7 220.2 236.5 220.4 236 220.8 235.8 221.5 236.2 222.4 236.8 223.1 237.5 223.4 238.4 222.9L258.9 211.9 255.6 222.9 246.7 227.9C246.7 227.9 246.4 228.1 246.4 228.1 246 228.6 245.7 229.2 246.2 230.1 246.4 230.8 247.5 231.1 248.4 230.7L254.4 227.6 251.9 235.7C251.7 236.4 252.1 237.3 253 237.8S254.8 237.4 255.3 236.5L257.5 228.6 260.8 234.4C261.2 235.3 262.3 235.6 263.2 235.1 263.7 234.7 264.2 233.8 263.7 232.9L258.8 223.9 262.2 212.7 273.2 233.1C273.7 234 274.8 234.3 275.5 234.1 276.2 233.4 276.7 232.5 276.2 231.6L263.5 208.4 265.7 201 281.2 197.3 286.5 202.9 286 229.4C286 230.3 286.7 231 287.6 231S289.2 230.4 289.2 229.5L289.6 206.2 297.7 214.8 297.5 224.7C297.4 225.6 298.1 226.3 299.2 226.6S300.8 225.9 300.9 225L300.8 218 306.8 224.3C307.4 225 308.6 224.8 309.2 224.1 309.9 223.5 310 222.6 309.3 221.9L303.4 215.6 310.1 215.8C311.3 216 312 215.4 311.8 214.2 311.8 213.3 311.1 212.6 310.2 212.6L300.3 212.3 292.1 203.7 315.4 204.6C316.3 204.6 317.3 203.7 317.3 202.8S316.6 201.2 315.7 201.2L289 200.5 283.8 194.9 288.5 179.4 295.8 177.8 318.3 191.8C319.1 192.2 320.1 191.8 320.8 191.1 321.2 190.3 320.8 189.3 320.1 188.6L300.3 176.6 311.5 173.9 320.2 179.4C321.1 179.8 322 179.4 322.7 178.7 322.9 178.1 322.7 176.9 321.8 176.5L316.3 172.9 324.5 170.9C325.1 170.7 325.6 169.8 325.6 168.9 325.2 167.9 324.3 167.5 323.6 167.7L315.4 169.7 319 163.7C319.2 163 319 161.9 318.4 161.7 317.7 161 317 161.2 316.3 161.8 316.3 161.8 316.1 162 316.1 162L310.7 170.7 299.5 173.4 311.6 153.6C312 152.7 312.1 151.8 311.2 151.3 310.3 150.8 309.6 151 309.1 151.5 308.9 151.7 308.9 151.7 308.9 151.7L294.9 174.6 287.6 176.2 276.4 164.4 278.6 157.4 302.1 144.5C302.8 144.3 303 143.1 302.8 142.5 302.4 141.5 301.2 141.3 300.3 141.7L279.9 152.7 283.1 141.7 292.1 136.7C293 136.3 293.5 135.4 292.8 134.7 292.4 133.8 291.3 133.6 290.6 133.8L284.6 137.2 287.1 129.1C287.1 128.2 286.7 127.3 285.8 126.8 285.3 126.8 284.6 127 284.2 127.5 283.9 127.7 283.9 127.7 283.9 128.2L281.5 136.2 278 130.3C277.6 129.3 276.7 129.3 276 129.5 275.7 129.7 275.7 129.7 275.5 130 275.1 130.4 274.8 131.1 275 131.8L280 140.7 276.8 151.7 265.7 131.3C265.1 130.6 264.2 130.1 263.5 130.8 263 130.8 263 130.8 262.8 131 262.3 131.4 262.3 132.3 262.5 133L275.5 156.5 273.3 163.4 257.6 167.3 252.5 162 253.2 135.3C253.2 134.4 252.3 133.4 251.4 133.4S249.6 134.3 249.6 135.2L249.2 158.5 241.3 150.1 241.3 139.9C241.3 139 240.7 138.3 239.8 138.3 238.9 138.3 238.2 138.9 238.1 139.8L238 146.6 232 140.4C231.6 139.9 230.4 139.6 229.7 140.3 229 141 229 142.3 229.5 142.8L235.4 149.1 228.6 148.9C228.2 148.9 227.7 148.9 227.5 149.1 227 149.5 227 150 227 150.4 227 151.3 227.6 152 228.5 152L238.7 152.5 246.6 160.9 223.3 160.1C222.9 160 222.7 160.3 222.2 160.7 222 160.9 221.7 161.1 221.7 161.6 221.7 162.5 222.6 163.4 223.5 163.5L249.9 164.4 255 169.7 250.5 185 243.2 187.1 220.5 172.9C219.8 172.6 218.9 172.6 218.5 173.1 218.2 173.3 218.2 173.3 218.5 173.5 217.8 174.2 218 175.3 218.9 175.8L238.7 187.8 227.3 190.7 218.6 185.3C217.9 185 217.2 185.2 216.8 185.7 216.8 185.7 216.5 185.9 216.5 185.9 215.8 186.6 216 187.7 216.9 188.2L223 191.7 214.8 193.8C214.3 193.8 214.1 194 213.8 194.2 213.4 194.7 213.1 195.3 213.3 195.6 213.5 196.7 214.4 197.2 215.3 197.2L223.5 195.1 220 200.7C219.5 201.6 219.7 202.7 220.6 203.2 221.3 203.5 222.4 203.3 222.7 202.6L228.1 193.9 239.3 191.3 227.2 211.1C226.7 212 227.2 212.9 227.8 213.6 228.5 213.8 229.6 213.6 230.1 212.7ZM263.6 196.4L255 187.4 253.7 186 254.2 184.2 257.6 172.5 258.4 170.5 260.2 170.1 272 167.2 273.9 166.8 275.2 168.2 283.8 177.3 285.1 178.7 284.6 180.5 281.1 192.1 280.6 193.9 278.6 194.6 266.7 197.4 264.9 197.8 263.6 196.4Z" fill="rgba(255, 255, 255, 0.58)"></path><path d="M856.3 356.9L872.3 349.5 871.6 361.3C871.4 362.5 872.5 364 874.2 364.4 875.7 364.2 877.2 363.1 877.3 361.9L878.5 346.3 893.4 339.6 890.7 371.1C890.7 373.1 891.7 374.5 893.3 374.2 895 374.7 896.4 373.7 896.4 371.6L899.3 336.9 912.6 330.4 940.7 349.8 939.9 362.8 906.1 378.3C905.8 378.8 905.5 379.2 905.2 379.7 904.9 380.2 904.7 381.4 904.8 382.2 905.6 384 907.3 384.5 908.7 383.5L939.5 369.4 938 385.3 922.5 393C922.1 392.7 921.7 393.2 921.4 393.6 920.8 394.5 920.6 395.8 921.2 396.9 921.8 398 923.5 398.5 925.1 398.2L937.6 391.8 936 411.9C935.9 413.1 936.9 414.5 938.6 415 940.2 414.7 941.6 413.7 941.8 412.4L943.2 393.6 952.8 400.3C954.2 401.3 956.1 400.5 956.7 399.6 957.7 398.2 957.7 396.2 956.3 395.3L943.9 386.7 945.4 370.7 971.2 388.5C972.6 389.4 974.1 389.2 975.1 387.8 976.1 386.4 975.8 384.8 974.4 383.9L945.8 364.2 946.5 350.4 977.6 335.8 988.2 343.1 985.5 378.6C985 380.3 986.5 382.1 988.1 381.8 989.8 382.3 990.7 380.9 991.2 379.2L993.8 346.9 1007.1 356.1 1005.6 372.1C1005.5 373.3 1007 375.1 1008.2 375.3S1011.2 373.9 1011.7 372.2L1012.7 359.9 1028.8 371.1C1030.2 372 1032.1 371.3 1033 369.9 1033.6 369 1033.7 367 1032.3 366L1016.2 354.9 1027.6 349.1C1028.7 348.5 1029.6 347.2 1028.9 345.3 1028.3 344.2 1026.1 343.4 1025 344L1010.6 351.1 997.3 341.8 1026.5 328C1027.9 326.9 1028.9 325.6 1028.1 323.7 1027.5 322.6 1025.4 321.8 1024.3 322.4L991.7 338 981.1 330.7 983.7 296.4 996.4 290.9 1024.9 310.6C1026.3 311.5 1027.9 311.3 1028.8 309.9 1029.8 308.5 1029.8 306.5 1028.4 305.5L1002.6 287.7 1017 280.6 1029.5 289.2C1030.8 290.2 1032.4 289.9 1033.4 288.5 1034.3 287.1 1034 285.6 1032.6 284.6L1023 277.9 1040 270C1041.1 269.4 1041.9 267.2 1041.3 266.1 1040.3 264.7 1038.9 263.7 1037.5 264.8L1019.6 272.9 1020.8 259.4C1020.5 257.9 1019.4 256.4 1018.2 256.3 1016.9 256.1 1015.8 256.7 1015.2 257.6 1015.2 257.6 1014.9 258.1 1015 258.9L1013.4 276.1 999 283.1 1001.2 249.3C1001.7 247.6 1000.6 246.2 998.6 246.2 997.8 246.3 997.1 246.5 996.4 247.4 996.1 247.8 995.8 248.3 995.5 248.8L993 285.8 981.1 291.3 953 271.9 954.3 257.1 985.8 242.1C987.7 241.3 988.1 239.6 987.1 238.2 986.8 236.7 985.1 236.2 983.2 236.9L954.7 250.6 955.8 234.3 969.9 227.7C970.9 227.1 971.4 225.4 971.2 223.8 970.1 222.4 968.7 221.5 967.3 222.5L956.5 227.3 957.7 209.8C958.2 208.1 956.8 207.1 955.1 206.7 954.3 206.8 953.2 207.4 952.6 208.3 952.6 208.3 952.3 208.8 952 209.2L950.6 228 939.1 220.1C938.1 219.4 936.1 219.4 935.2 220.8 934.2 222.2 935 224 935.9 224.7L950.2 234.5 949.1 250.8 921 231.4C919.6 230.5 917.8 231.2 916.8 232.6S916.1 235.6 917.5 236.5L948.4 257.8 947.3 271.3 916.1 285.9 904.1 277.6 907.2 241.6C906.9 240.1 905.8 238.7 904.1 238.2 903.4 238.3 902.3 238.9 901.6 239.8 901.3 240.3 901 240.8 901.1 241.5L898.6 273.8 885.2 264.6 886.3 248.3C886.4 247.1 885.4 245.6 883.7 245.1 882.1 245.4 880.7 246.5 880.5 247.7L879.7 260.8 865 250.6C864 250 861.7 250.4 861.1 251.3 860.1 252.7 860.5 255 861.5 255.7L876.2 265.8 864.6 270.8C864.3 271.2 864 271.7 863.7 272.2 863 273.1 862.9 274.3 863 275.1 864.1 276.5 865.8 277 867.3 276.7L881.7 269.7 895.1 278.9 865.8 292.7C864 293.5 863.5 295.2 864.1 296.3 864.8 298.1 866.5 298.6 868.1 298.3L900.6 282.7 912.6 291 910.1 325.2 897.9 331.1 867 309.8C865.6 308.9 864 309.1 863.1 310.5 862.1 311.9 862.4 313.5 863.8 314.4L891.9 333.8 877.1 340.6 862.8 330.7C861.8 330.1 859.5 330.5 858.5 331.9 857.6 333.3 858.3 335.2 859.3 335.8L870.8 343.7 853.7 351.7C853.4 352.2 853.4 352.2 853.1 352.6 852.5 353.5 852.3 354.8 852.4 355.6 853.5 357 855.2 357.5 856.3 356.9ZM918.2 294.8L918.7 291.1 921.7 289.7 946.9 277.8 949.8 276.5 952.6 278.4 975.2 294 977.9 295.9 977.7 299.1 975.6 326.9 975.4 330.2 972.1 332 947.2 343.4 943.9 345.2 941.2 343.3 918.6 327.7 915.8 325.8 916.3 322.1 918.2 294.8Z" fill="rgba(255, 255, 255, 0.58)"></path><path d="M1252.3 514.7L1263.5 515.2 1260.1 521C1259.7 521.6 1259.9 522.6 1260.6 523.3 1261.5 523.6 1262.5 523.4 1262.7 522.5L1267.2 515.3 1275.9 515.3 1266.6 530.2C1266.4 531.1 1266.5 532.1 1267.1 532.5 1268.2 533.1 1269.2 532.9 1269.4 532L1279.7 515.4 1293 515.8 1283.6 527.9 1298.8 526.4 1292 537.9 1272.5 537.6C1272.3 537.3 1272 537.5 1271.8 537.6 1271.2 537.9 1270.8 538.5 1270.8 539.3 1270.9 540 1271.6 540.7 1272.5 540.9L1290.1 541.1 1285.4 548.4 1276.9 548.3C1276.5 548.2 1276.2 548.4 1275.9 548.5 1275.6 548.7 1275.2 549.3 1275.2 550 1275.3 550.7 1276 551.4 1276.7 551.3L1283.5 551.7 1277.8 561.3C1277.1 562.1 1277.6 562.9 1278.3 563.6 1278.9 564 1279.9 563.8 1280.5 562.8L1286.3 553.4 1289.5 559.3C1290 560.1 1291.1 560.2 1291.7 559.9 1292.5 559.5 1292.8 558.6 1292.3 557.8L1288.1 550.2 1292.9 542.9 1301.2 558C1301.6 558.8 1302.5 559.1 1303.4 558.6 1303.9 558.3 1304.5 557.3 1304 556.5L1294.8 539.6 1301.6 528.2 1307.5 542.2 1313.8 528.5 1320.3 540.2 1310.3 556.7C1309.8 557.7 1310.2 558.5 1310.8 558.9 1311.4 559.3 1312.4 559.2 1313.1 558.4L1322 543.3 1326.1 550.9 1321.8 558.4C1321.1 559.1 1321.3 560.1 1322.3 560.6 1322.9 561 1323.9 560.9 1324.5 559.8L1328 554.3 1333.4 564.1C1333.8 564.9 1334.7 565.2 1335.5 564.7S1336.6 563.4 1336.2 562.5L1330.8 552.7 1337.4 552.8C1338.5 552.9 1339.2 552.1 1339.2 551.4 1339.3 550.3 1338.5 549.6 1337.5 549.7L1328.9 549.4 1324.8 541.8 1342.3 542.4C1343.3 542.2 1343.9 541.5 1343.9 540.8 1344 539.6 1343.3 538.9 1342.3 539.1L1323.1 538.7 1316.6 526.9 1331.6 528.9 1323 516.5 1336.3 516.9 1345.5 533.7C1346 534.5 1347.1 534.6 1347.7 534.3 1348.5 533.9 1348.8 533 1348.3 532.2L1339.9 516.7 1348.7 517 1352.9 524.5C1353.4 525.4 1354.2 525.6 1355.1 525.2 1355.6 524.9 1356.2 523.8 1355.7 523L1352.5 517.1 1363.5 517.3C1364.7 517.4 1365.3 516.6 1365.2 515.6 1365.1 514.9 1364.7 514.1 1363.7 514.2L1352.5 513.8 1355.9 508C1356.3 507.4 1356.1 506.4 1355.5 506 1354.9 505.6 1354.2 505.6 1353.9 505.7 1353.6 505.9 1353.3 506 1353.2 506.5L1348.8 513.7 1340 513.7 1349.3 498.7C1349.6 497.9 1349.4 496.9 1348.8 496.5 1348.2 496.1 1347.5 496.1 1347 496.4 1346.7 496.6 1346.7 496.6 1346.6 497L1336.3 513.6 1323 513.2 1332.4 501.1 1317.1 502.5 1324 491.1 1343.5 491.4C1344.2 491.4 1345 490.9 1345.1 489.7 1345.1 489 1344.4 488.3 1343.5 488.1L1325.9 487.9 1330.6 480.6 1339.1 480.7C1339.9 480.9 1340.6 480.2 1340.7 479 1340.7 478.3 1339.9 477.6 1339.1 477.4L1332.5 477.3 1338.1 467.7C1338.8 466.9 1338.4 466.1 1337.6 465.4 1337.2 465.3 1336.5 465.3 1336.2 465.4 1335.9 465.6 1335.6 465.8 1335.5 466.2L1329.7 475.6 1326.5 469.7C1326 468.8 1324.9 468.7 1324.3 469.1L1324.3 469.1C1323.5 469.5 1323.2 470.4 1323.7 471.2L1327.8 478.8 1323.1 486.1 1314.8 471C1314.3 470.1 1313.4 469.9 1312.6 470.4S1311.5 471.7 1312 472.5L1321.2 489.4 1314.3 500.8 1308.5 486.8 1302.2 500.5 1295.7 488.8 1305.7 472.3C1306.2 471.3 1305.7 470.5 1305.1 470.1 1304.6 469.7 1303.6 469.8 1302.9 470.6L1293.8 485.4 1289.8 478.1 1294.1 470.6C1294.8 469.9 1294.6 468.9 1293.6 468.4 1293 467.9 1292 468.1 1291.4 468.9L1288 474.7 1282.6 464.9C1282.1 464.1 1281.3 463.8 1280.4 464.3S1279.3 465.6 1279.8 466.4L1285.2 476.3 1278.6 476.2C1278.2 476.1 1277.9 476.3 1277.6 476.4 1277 476.7 1276.9 477.2 1276.8 477.6 1276.7 478.7 1277.4 479.4 1278.4 479.2L1287 479.6 1291.2 487.2 1273.7 486.6C1273.4 486.7 1273.1 486.9 1272.9 487 1272.3 487.4 1272.2 487.8 1272 488.2 1271.9 489.4 1272.7 490.1 1273.7 489.9L1292.9 490.3 1299.3 502.1 1284.4 500.1 1293 512.5 1279.7 512.1 1270.4 495.3C1270 494.5 1268.8 494.4 1268.3 494.7 1267.4 495.1 1267.2 496 1267.6 496.8L1275.9 512 1267.2 512 1263.1 504.5C1262.6 503.6 1261.7 503.4 1260.9 503.8S1259.8 505.2 1260.3 506L1263.5 511.9 1252.5 511.7C1252 511.6 1251.7 511.8 1251.5 511.9 1251.2 512.1 1250.8 512.7 1250.8 513.4 1250.8 514.1 1251.3 514.9 1252.3 514.7ZM1291 504.1L1303.2 505.8 1308.4 494.6 1313.2 506.1 1325.4 505 1318 514.8 1325 524.9 1312.8 523.2 1307.6 534.4 1302.9 523.1 1290.6 524 1298.1 514.4 1291 504.1Z" fill="rgba(255, 255, 255, 0.58)"></path><path d="M1292.7 58.2L1317 80.9 1317.8 110.4 1291.7 96.4 1282.5 64.5C1282.5 64.5 1282.3 64.2 1282.3 64.2 1281.8 63.5 1280.7 63.2 1279.9 63.3 1278.6 63.6 1278 64.9 1278.6 65.9L1286.8 93.8 1274.2 87 1270.4 74.7C1270.4 74.7 1270.2 74.4 1270.2 74.4 1269.8 73.7 1268.7 73.5 1267.8 73.5 1266.6 73.8 1266 75.1 1266.6 76.1L1269 84.6 1259.7 79.4C1259 79 1257.4 79.5 1256.9 80.2 1256.1 81.2 1256.9 82.6 1257.7 83L1266.9 88.2 1258.5 90.5C1257.3 90.8 1256.7 92.1 1257.3 93.1 1257.6 94.4 1258.9 95 1260 94.3L1272.2 90.6 1284.5 97.6 1256.6 105.8C1255.4 106 1254.8 107.4 1255.4 108.4 1255.7 109.6 1257 110.2 1258.1 109.6L1289.9 100.3 1315.9 114.4 1290.4 130.1 1257.9 122.3C1256.8 122.1 1255.8 122.7 1255.5 123.8 1255.3 124.9 1255.9 125.9 1257 126.2L1285.6 133 1273.4 140.6 1261.2 137.7C1260.1 137.4 1259.1 138 1258.9 139.1 1258.6 140.2 1259.2 141.3 1260.3 141.5L1268.6 143.5 1259 149.4C1257.8 149.7 1257.8 151.1 1258.4 152.1 1259 153.1 1260.1 153.4 1261.1 152.8L1270 147.3 1268 155.6C1267.8 156.7 1268.4 157.7 1269.5 158S1271.6 157.6 1271.9 156.5L1274.8 144.4 1287 136.8 1280.2 165.5C1279.9 166.6 1280.6 167.6 1281.7 167.8 1282.8 168.1 1283.8 167.5 1284.1 166.4L1291.8 133.9 1317 118.4 1317.8 148 1295.6 171.5C1294.8 172.4 1295.1 173.7 1295.7 174.7 1296.7 175.5 1297.9 175.2 1299 174.6L1318.8 153.4 1319.2 167.8 1310.3 177C1309.5 178 1309.8 179.2 1310.4 180.2 1311.4 181 1312.6 180.7 1313.3 180.3L1319.2 173.9 1319.6 184.4C1319.7 185.3 1320.5 186.7 1321.7 186.4 1323 186.1 1324 185.5 1323.7 184.3L1323.3 173.7 1329.8 179.6C1330.7 180.4 1332 180.1 1332.6 179.7 1333.1 178.9 1333.4 177.8 1333 177.2 1333 177.2 1332.7 176.8 1332.7 176.8L1323.5 167.9 1323.2 153.6 1344.3 173.5C1345.3 174.3 1346.5 174 1347.2 173.6 1347.7 172.8 1347.9 171.7 1347.5 171 1347.5 171 1347.3 170.7 1347.3 170.7L1323 148 1322.2 118.5 1348.2 132.5 1357.5 164.4C1357.8 165.6 1359.1 166.2 1360.1 165.6 1361.4 165.3 1362 164 1361.3 163L1353.1 135.2 1365.8 142 1369.5 154.2C1369.8 155.4 1371.1 156 1372.2 155.4 1373.4 155.1 1374 153.8 1373.4 152.8L1371 144.4 1380.3 149.5C1381 150 1382.6 149.5 1383.1 148.7 1383.5 147.9 1383.5 147 1383 146.4 1382.8 146 1382.6 145.7 1382.1 145.5L1372.8 140.4 1381.2 138.1C1382.5 137.8 1383.1 136.5 1382.4 135.5 1382.4 135.5 1382.2 135.1 1382.2 135.1 1381.8 134.4 1380.7 134.2 1379.8 134.3L1367.6 138 1355 131.2 1382.8 123C1384 122.8 1384.6 121.4 1384 120.4 1384 120.4 1383.8 120.1 1383.8 120.1 1383.4 119.4 1382.3 119.1 1381.4 119.2L1349.5 128.5 1323.5 114.4 1348.7 98.9 1381.2 106.7C1382.3 106.9 1383.3 106.3 1383.6 105.2 1383.8 104.1 1383.2 103.1 1382.1 102.8L1353.8 95.8 1366.1 88.2 1378.2 91.1C1379.3 91.4 1380.3 90.8 1380.6 89.7S1380.2 87.5 1379.1 87.3L1370.9 85.3 1379.7 79.9C1380.7 79.2 1381 78.1 1380.4 77.1 1379.7 76.1 1378.6 75.8 1377.6 76.4L1368.8 81.9 1370.7 73.6C1370.9 73.1 1371 72.5 1370.6 71.9S1369.6 71 1369 70.9C1367.9 70.7 1366.9 71.3 1366.7 72.4L1363.8 84.5 1351.5 92 1358.3 63.4C1358.5 62.9 1358.6 62.3 1358.2 61.6 1358 61.3 1357.2 60.8 1356.7 60.7 1355.6 60.4 1354.5 61.1 1354.3 62.2L1346.5 94.6 1321.3 110.1 1320.5 80.6 1343.2 56.3C1343.6 55.5 1343.9 54.4 1343.5 53.8 1343.5 53.8 1343.3 53.4 1343.3 53.4 1342.3 52.6 1341.1 52.9 1340.4 53.3L1320.5 74.5 1320.2 60.1 1329 50.9C1329.5 50.1 1329.8 49 1329.4 48.4 1329.4 48.4 1329.1 48 1329.1 48 1328.2 47.2 1326.9 47.5 1326.3 47.9L1320.4 54.4 1320 43.8C1319.8 43.5 1319.9 42.9 1319.7 42.6 1319.3 41.9 1318.5 41.4 1317.6 41.5 1316.4 41.8 1315.4 42.4 1315.7 43.6L1316 54.2 1309.6 48.3C1308.6 47.5 1307.4 47.8 1306.7 48.2 1305.9 49.2 1306.2 50.4 1306.6 51.1L1315.8 60 1316.2 74.3 1295.1 54.4C1294.1 53.6 1292.9 53.9 1292.2 54.3 1291.8 56 1291.7 57.4 1292.7 58.2Z" fill="rgba(255, 255, 255, 0.58)"></path><path d="M1105.3 202.7L1095.8 178 1098.6 171.3 1114.8 169.5 1119.3 175.4 1115.1 201.6C1115.2 202 1115.2 202 1115.2 202.3 1115.3 202.9 1115.7 203.5 1116.7 203.7 1117.6 203.6 1118.2 203.2 1118.4 202.2L1122 179.3 1128.8 188.5 1127.4 198.7C1127.4 198.7 1127.4 199 1127.4 199 1127.5 199.6 1127.9 200.2 1128.9 200.5 1129.5 200.7 1130.4 200 1130.6 199L1131.8 192.4 1136.8 199.3C1137.2 199.9 1138.1 200.1 1139.1 199.7S1139.8 198 1139.4 197L1134.5 190.5 1141.1 191.4C1142 191.6 1142.9 190.9 1143.1 189.9 1143.1 189.2 1142.7 188.3 1141.7 188.1L1131.5 186.6 1124.7 177.1 1147.6 180.7C1148.6 180.9 1149.5 180.2 1149.7 179.5 1149.6 178.5 1149.2 177.6 1148.2 177.4L1122 173.5 1117.5 167.3 1123.9 152.7 1131.6 151.9 1152.4 168.3C1153.1 168.8 1154 168.7 1154.6 168S1155.1 166.4 1154.3 165.8L1136 151.4 1147.8 150.1 1155.6 156.3C1156.3 156.9 1157.2 156.8 1158.1 156S1158.6 154.4 1157.9 153.8L1152.2 149.6 1160.8 148.7C1161.8 148.6 1162.3 147.5 1162.2 146.6 1162.1 145.6 1161.4 145.1 1160.5 145.2L1151.9 146.1 1156.1 140.8C1157 140.1 1156.9 139.1 1155.9 138.6 1155.2 138 1154.2 138.1 1153.6 138.8L1147.4 146.6 1135.6 147.9 1150.4 129.8C1151 129.1 1150.8 127.9 1150.1 127.3S1148.5 126.8 1147.9 127.5L1131.2 148.4 1123.6 149.2 1114.1 136.1 1117.2 129.3 1141.9 119.8C1142.8 119.4 1143 118.4 1142.9 117.5 1142.5 116.5 1141.5 116.3 1140.6 116.4L1119 124.9 1123.6 114.4 1133.2 110.8C1134.1 110.4 1134.3 109.4 1134.2 108.4 1133.8 107.8 1132.8 107.3 1131.9 107.7L1125.7 110 1129 102.2C1129.3 101.6 1128.9 100.7 1128.1 100.1 1127.2 99.9 1126.2 100.3 1126 101L1122.7 108.7 1120 102.3C1119.6 101.7 1118.6 101.1 1118 101.5 1117 101.6 1116.8 102.3 1116.9 103.3 1116.9 103.3 1116.9 103.6 1116.9 103.6L1120.6 113.2 1115.9 123.6 1107.4 102C1107 101.1 1106.3 100.6 1105.4 101 1104.5 101.4 1104.2 102.1 1104.3 102.7 1104.3 103 1104.3 103 1104.3 103L1114.1 128 1111 134.8 1094.8 136.6 1090.6 130.6 1094.5 104.1C1094.7 103.4 1094 102.6 1093.3 102.3 1092.3 102.1 1091.4 102.8 1091.2 103.8L1087.6 126.7 1080.8 117.5 1082.3 107.4C1082.5 106.4 1082.1 105.5 1081.1 105.6 1080.1 105.4 1079.2 106.1 1079 106.8L1078.1 113.6 1073.2 106.8C1072.5 106.2 1071.5 106 1070.6 106.4 1070.3 106.8 1070 107.4 1070.1 108.1 1070.1 108.4 1070.1 108.4 1070.5 108.7L1075.4 115.5 1068.6 114.7C1067.6 114.5 1067 115.2 1066.8 115.8 1066.8 116.2 1066.8 116.2 1066.8 116.5 1066.9 117.1 1067.3 117.7 1068 118L1078.1 119.4 1084.9 128.7 1062 125.1C1061 125.2 1060.1 125.6 1060.2 126.5 1059.9 126.9 1059.9 126.9 1060 127.2 1060 127.8 1060.8 128.4 1061.4 128.7L1087.9 132.5 1092.1 138.5 1085.7 153.4 1078.4 154.2 1057.6 137.5C1056.9 136.9 1055.6 137 1055 137.7S1054.6 139.7 1055.3 140.3L1073.6 154.7 1062.2 155.9 1054.1 149.7C1053.4 149.2 1052.4 149.3 1051.9 150 1051.3 150.7 1051.4 151.6 1052.1 152.2L1057.4 156.5 1048.8 157.4C1048.2 157.5 1047.3 158.2 1047.4 159.2 1047.5 160.1 1048.5 161 1049.2 160.9L1057.8 160 1053.5 165.3C1053.2 165.6 1053 166 1053 166.3 1053.1 166.9 1053.4 167.2 1053.8 167.5 1054.5 168 1055.4 167.9 1056 167.2L1062.5 159.4 1074 158.2 1059.2 176.2C1059 176.6 1059 176.9 1059.1 177.5 1059.1 177.8 1059.1 178.2 1059.5 178.4 1060.2 179 1061.5 178.9 1062 178.2L1078.8 157.7 1086.1 156.9 1095.5 169.7 1092.8 176.7 1067.7 186.2C1067.1 186.6 1066.6 187.3 1066.6 188 1066.7 188.3 1066.7 188.3 1067 188.2 1067.1 189.2 1068.1 189.7 1069 189.3L1090.6 180.8 1086 191.6 1076.5 195.3C1075.9 195.6 1075.6 196.3 1075.7 197 1075.7 197 1075.7 197.3 1075.7 197.3 1075.8 198.2 1076.8 198.8 1077.8 198.3L1084.2 195.7 1080.9 203.5C1080.6 203.8 1080.6 204.1 1080.7 204.4 1080.8 205.1 1081.1 205.7 1081.5 205.7 1082.5 206.2 1083.4 205.8 1084 205.1L1087.3 197.3 1089.6 203.5C1090 204.4 1091 204.9 1092 204.5 1092.6 204.1 1093.1 203.1 1092.7 202.5L1089.1 192.9 1093.7 182.4 1102.2 204C1102.6 204.9 1103.6 205.2 1104.6 205 1105.2 204.7 1105.7 203.6 1105.3 202.7ZM1112.5 166.2L1100.1 167.5 1098.2 167.8 1097.1 166.3 1089.9 156.4 1088.7 154.6 1089.5 152.9 1094.4 141.8 1095.2 140.1 1097.1 139.9 1109.5 138.5 1111.4 138.3 1112.5 139.8 1119.7 149.6 1120.9 151.1 1120.1 153.1 1115.2 164.3 1114.4 166 1112.5 166.2Z" fill="rgba(255, 255, 255, 0.58)"></path><path d="M1289.1 344.4L1262.9 348.2 1256.9 344 1258.7 327.8 1265.5 324.7 1290.2 334.5C1290.5 334.5 1290.5 334.5 1290.8 334.6 1291.4 334.6 1292.1 334.4 1292.5 333.5 1292.6 332.5 1292.4 331.8 1291.5 331.4L1269.9 322.9 1280.3 318.3 1289.9 321.9C1289.9 321.9 1290.2 322 1290.2 322 1290.9 322 1291.6 321.8 1292 320.9 1292.4 320.3 1291.8 319.2 1290.9 318.8L1284.8 316.2 1292.5 312.9C1293.2 312.6 1293.6 311.7 1293.4 310.7S1291.9 309.6 1290.9 309.8L1283.5 313.2 1285.8 307C1286.2 306.1 1285.7 305 1284.8 304.6 1284.1 304.5 1283.1 304.8 1282.7 305.7L1279.1 315.3 1268.3 319.9 1276.8 298.3C1277.2 297.3 1276.7 296.3 1276 295.9 1275.1 295.8 1274.1 296 1273.7 297L1264.2 321.7 1257.1 324.7 1244.3 315.3 1245.1 307.7 1265.7 290.9C1266.4 290.4 1266.5 289.4 1265.9 288.7S1264.4 287.9 1263.7 288.4L1245.6 303.2 1246.9 291.4 1254.7 285.2C1255.4 284.6 1255.5 283.7 1255 282.7S1253.5 281.8 1252.7 282.4L1247.4 287 1248.4 278.4C1248.5 277.4 1247.6 276.7 1246.6 276.6 1245.7 276.5 1245 277.1 1244.9 278L1243.9 286.6 1239.7 281.3C1239.1 280.3 1238.2 280.2 1237.4 281.1 1236.7 281.6 1236.6 282.6 1237.2 283.3L1243.4 291 1242.1 302.8 1227.7 284.5C1227.2 283.8 1225.9 283.6 1225.2 284.2S1224.4 285.7 1224.9 286.4L1241.6 307.3 1240.8 314.9 1225.9 321.3 1220 316.8 1216.1 290.6C1215.9 289.6 1215 289.2 1214 289.1 1213 289.3 1212.6 290.2 1212.5 291.2L1216.1 314.1 1206.9 307.3 1205.4 297.2C1205.2 296.2 1204.3 295.8 1203.3 295.6 1202.7 295.9 1201.9 296.8 1202.1 297.8L1203 304.3 1196.2 299.4C1195.6 299 1194.6 299.2 1193.9 299.8 1193.4 300.7 1193.6 301.7 1194.2 302.1L1201.1 307 1194.2 308.2C1193.5 308.4 1192.8 309.3 1193.1 310 1192.9 310.9 1193.6 311.3 1194.5 311.4 1194.5 311.4 1194.8 311.5 1194.8 311.5L1205 310 1214.2 316.8 1191.3 320.4C1190.3 320.6 1189.6 321.2 1189.8 322.2 1190 323.2 1190.6 323.5 1191.2 323.6 1191.5 323.6 1191.5 323.6 1191.5 323.6L1218.1 319.5 1224 324 1222.2 340.2 1215.5 343 1190.5 333.5C1189.9 333.1 1188.8 333.7 1188.5 334.3 1188 335.2 1188.6 336.2 1189.5 336.6L1211.1 345.1 1200.6 349.8 1191 346.1C1190.1 345.7 1189.1 345.9 1189 346.9 1188.6 347.8 1189.1 348.8 1189.7 349.2L1196.2 351.5 1188.4 354.9C1187.7 355.4 1187.3 356.3 1187.5 357.3 1187.8 357.7 1188.4 358.1 1189 358.1 1189.4 358.2 1189.4 358.2 1189.7 357.9L1197.5 354.6 1195.2 361.1C1194.7 362 1195.3 362.7 1195.9 363.1 1196.2 363.1 1196.2 363.1 1196.5 363.2 1197.2 363.2 1197.8 363 1198.2 362.4L1201.9 352.8 1212.4 348.2 1203.9 369.8C1203.8 370.7 1204 371.7 1204.9 371.8 1205.2 372.2 1205.2 372.2 1205.5 372.2 1206.2 372.3 1206.9 371.7 1207.3 371.1L1216.8 346.1 1223.5 343.3 1236.6 352.8 1235.8 360.1 1215 376.8C1214.3 377.3 1214.2 378.6 1214.7 379.3S1216.6 380.2 1217.3 379.6L1235.3 364.8 1234 376.3 1226.2 382.8C1225.5 383.4 1225.4 384.4 1226 385.1 1226.6 385.8 1227.5 385.9 1228.2 385.3L1233.5 381.1 1232.6 389.7C1232.5 390.3 1233 391.3 1234 391.4 1234.9 391.5 1236 390.7 1236.1 390L1237 381.4 1241.3 386.7C1241.5 387.1 1241.8 387.5 1242.1 387.5 1242.8 387.6 1243.1 387.3 1243.5 387 1244.2 386.4 1244.3 385.5 1243.7 384.8L1237.5 376.7 1238.8 365.2 1253.2 383.6C1253.5 383.9 1253.8 383.9 1254.4 384 1254.8 384 1255.1 384.1 1255.4 383.8 1256.1 383.2 1256.3 382 1255.7 381.3L1239.3 360.5 1240.1 353.1 1254.7 346.7 1261 350.9 1264.8 377.4C1265.1 378.1 1265.6 378.8 1266.3 378.9 1266.6 378.9 1266.6 378.9 1266.6 378.6 1267.6 378.7 1268.3 377.8 1268.1 376.8L1264.5 353.9 1274.1 360.7 1275.5 370.9C1275.8 371.5 1276.4 371.9 1277 372 1277 372 1277.3 372 1277.3 372 1278.3 372.1 1279 371.3 1278.8 370.3L1277.6 363.4 1284.5 368.3C1284.8 368.7 1285.1 368.7 1285.4 368.7 1286.1 368.8 1286.7 368.6 1286.8 368.3 1287.5 367.4 1287.3 366.4 1286.7 365.7L1279.9 360.7 1286.4 359.8C1287.4 359.6 1288.1 358.7 1287.9 357.8 1287.7 357.1 1286.8 356.3 1286.1 356.6L1276 358 1266.7 351.2 1289.7 347.6C1290.7 347.4 1291.1 346.5 1291.2 345.6 1290.9 344.9 1290.1 344.1 1289.1 344.4ZM1255 329.3L1253.6 341.7 1253.4 343.7 1251.7 344.4 1240.6 349.3 1238.5 350.1 1237.1 348.9 1227.2 341.7 1225.7 340.6 1225.9 338.7 1227.3 326.3 1227.5 324.4 1229.2 323.6 1240.4 318.7 1242.1 317.9 1243.9 319.1 1253.7 326.3 1255.2 327.4 1255 329.3Z" fill="rgba(255, 255, 255, 0.58)"></path></g><defs><mask id="SvgjsMask1170"><rect width="1440" height="560" fill="#ffffff"></rect></mask><linearGradient x1="15.28%" y1="139.29%" x2="84.72%" y2="-39.29%" gradientUnits="userSpaceOnUse" id="SvgjsLinearGradient1171"><stop stop-color="#0e2a47" offset="0"></stop><stop stop-color="rgba(0, 0, 0, 1)" offset="1"></stop></linearGradient><filter id="SvgjsFilter1172"><feGaussianBlur stdDeviation="1"></feGaussianBlur></filter></defs></svg>